#!OML:ASF H:\IndianDance\Patient Classification 1\Patient 1\Session 1\dancer.ASF
:FULLY-SPECIFIED
:DEGREES
2063
root 18.3877 13.9657 5.20695 196.005 -33.1696 -193.733
lowerback 8.15987 -1.4386 -5.84172
upperback -6.21083 -3.70339 -5.10484
thorax -11.3458 -1.76035 -1.56526
lowerneck -14.6562 -2.98602 -4.15984
upperneck 6.42359 -4.02315 7.19782
head 4.53817 -1.68171 2.57823
rclavicle -9.07141e-014 -2.06736e-014
rhumerus -43.3836 3.00022 -45.3207
rradius 117.299
rwrist -8.92291
rhand -46.4699 45.5145
rfingers 7.12502
rthumb -19.1976 16.442
lclavicle -9.07141e-014 -2.06736e-014
lhumerus -1.69582 -9.76383 23.0924
lradius 83.7953
lwrist 44.175
lhand -32.9822 52.0164
lfingers 7.12502
lthumb -6.19705 801.906
rfemur -53.8053 -9.26085 52.9146
rtibia 57.8928
rfoot 10.7573 9.669
rtoes 11.4731
lfemur -11.8808 10.309 -42.7704
ltibia 44.9235
lfoot -26.6981 -11.1975
ltoes 22.3309
2064
root 18.1406 13.9086 5.24261 195.965 -33.5458 -193.344
lowerback 7.8269 -1.82132 -5.69143
upperback -6.35533 -4.10562 -4.64779
thorax -11.269 -1.93201 -1.09583
lowerneck -14.2244 -3.67734 -4.60287
upperneck 6.0165 -4.94034 7.85683
head 4.42655 -2.12617 2.78094
rclavicle 5.25723e-014 6.20208e-014
rhumerus -42.7169 1.20452 -43.4518
rradius 114.453
rwrist -12.7698
rhand -45.8929 41.3314
rfingers 7.12502
rthumb -18.6427 12.2048
lclavicle 5.25723e-014 6.20208e-014
lhumerus -2.52934 -12.2673 22.5119
lradius 86.9384
lwrist 42.4238
lhand -34.1008 50.0851
lfingers 7.12502
lthumb -7.27684 799.94
rfemur -52.7815 -9.53231 53.6816
rtibia 55.2468
rfoot 9.98442 8.40644
rtoes 10.6231
lfemur -11.2545 10.5388 -43.2161
ltibia 44.6015
lfoot -26.8009 -11.4617
ltoes 23.429
2065
root 17.8891 13.8543 5.27673 195.99 -33.8668 -193.019
lowerback 7.44977 -2.20808 -5.61687
upperback -6.5262 -4.53087 -4.19435
thorax -11.1865 -2.11295 -0.591842
lowerneck -13.7994 -4.32413 -5.03435
upperneck 5.65849 -5.80851 8.54486
head 4.3392 -2.54701 2.99587
rclavicle -4.59503e-014 2.96189e-014
rhumerus -41.6583 -0.334497 -41.5864
rradius 111.27
rwrist -16.8046
rhand -44.9047 36.4863
rfingers 7.12502
rthumb -17.692 7.27117
lclavicle -4.59503e-014 2.96189e-014
lhumerus -3.24724 -14.7952 21.8898
lradius 89.8991
lwrist 40.4662
lhand -35.2045 48.0005
lfingers 7.12502
lthumb -8.34209 797.816
rfemur -51.9023 -9.59421 54.1039
rtibia 52.9751
rfoot 9.36425 7.18986
rtoes 10.0005
lfemur -10.6015 10.8188 -43.7314
ltibia 44.1694
lfoot -26.726 -11.7761
ltoes 24.6038
2066
root 17.6334 13.8034 5.30979 196.098 -34.1841 -192.765
lowerback 7.03099 -2.60991 -5.60651
upperback -6.72716 -4.99135 -3.73857
thorax -11.1018 -2.30935 -0.0523942
lowerneck -13.3866 -4.92721 -5.43212
upperneck 5.3565 -6.62795 9.21428
head 4.27577 -2.94567 3.20388
rclavicle 3.45885e-014 1.75924e-014
rhumerus -40.2048 -1.65919 -39.7472
rradius 107.779
rwrist -21.0434
rhand -43.3897 31.1077
rfingers 7.12502
rthumb -16.2337 1.76733
lclavicle 3.45885e-014 1.75924e-014
lhumerus -3.8318 -17.3495 21.2327
lradius 92.6697
lwrist 38.3257
lhand -36.3399 45.8268
lfingers 7.12502
lthumb -9.43778 795.595
rfemur -51.226 -9.43942 54.1653
rtibia 51.1479
rfoot 8.92671 5.99261
rtoes 9.68547
lfemur -9.91799 11.1305 -44.3089
ltibia 43.6209
lfoot -26.4875 -12.0972
ltoes 25.6843
2067
root 17.3732 13.7557 5.34208 196.288 -34.5344 -192.586
lowerback 6.57313 -3.03522 -5.64705
upperback -6.95137 -5.49486 -3.27879
thorax -11.0069 -2.52594 0.516615
lowerneck -13 -5.48435 -5.77402
upperneck 5.10905 -7.39594 9.83539
head 4.23422 -3.32092 3.39174
rclavicle 3.43897e-014 -3.21037e-014
rhumerus -38.3592 -2.82928 -37.9641
rradius 103.997
rwrist -25.4982
rhand -41.3118 25.4135
rfingers 7.12502
rthumb -14.2321 -4.07888
lclavicle 3.43897e-014 -3.21037e-014
lhumerus -4.26185 -19.9224 20.531
lradius 95.2514
lwrist 35.9911
lhand -37.5483 43.6359
lfingers 7.12502
lthumb -10.6036 793.348
rfemur -50.7776 -9.078 53.8657
rtibia 49.8148
rfoot 8.65063 4.80363
rtoes 9.79465
lfemur -9.19004 11.464 -44.9304
ltibia 42.9551
lfoot -26.0804 -12.4581
ltoes 26.7293
2068
root 17.109 13.7115 5.37416 196.538 -34.9594 -192.434
lowerback 6.07893 -3.49146 -5.68321
upperback -7.19788 -6.04194 -2.80191
thorax -10.9031 -2.7662 1.09717
lowerneck -12.6434 -5.99117 -6.03232
upperneck 4.91114 -8.10612 10.3703
head 4.20801 -3.67011 3.54354
rclavicle -4.3919e-015 2.38045e-014
rhumerus -36.1326 -3.90638 -36.2609
rradius 99.934
rwrist -30.188
rhand -38.7056 19.6389
rfingers 7.12502
rthumb -11.7198 -10.0133
lclavicle -4.3919e-015 2.38045e-014
lhumerus -4.51351 -22.4971 19.7755
lradius 97.63
lwrist 33.4693
lhand -38.8448 41.3069
lfingers 7.12502
lthumb -11.854 790.951
rfemur -50.5736 -8.53281 53.2642
rtibia 49.0054
rfoot 8.44956 3.77086
rtoes 10.5198
lfemur -8.41964 11.7974 -45.5377
ltibia 42.1836
lfoot -25.49 -12.8872
ltoes 27.7247
2069
root 16.841 13.6704 5.40662 196.818 -35.4825 -192.267
lowerback 5.56293 -3.98129 -5.68339
upperback -7.46617 -6.63043 -2.28573
thorax -10.7974 -3.02977 1.69465
lowerneck -12.3256 -6.45175 -6.22322
upperneck 4.76771 -8.75786 10.8029
head 4.19719 -3.99247 3.65658
rclavicle 5.03298e-014 4.01545e-014
rhumerus -33.5322 -4.91521 -34.6413
rradius 95.5946
rwrist -35.1677
rhand -35.7542 13.9663
rfingers 7.12502
rthumb -8.87266 -15.8272
lclavicle 5.03298e-014 4.01545e-014
lhumerus -4.60703 -25.0533 18.9904
lradius 99.8085
lwrist 30.7422
lhand -40.2219 38.8748
lfingers 7.12502
lthumb -13.1817 788.438
rfemur -50.6086 -7.85421 52.4351
rtibia 48.7211
rfoot 8.22966 3.12917
rtoes 11.996
lfemur -7.60507 12.1191 -46.0811
ltibia 41.3287
lfoot -24.742 -13.3697
ltoes 28.5657
2070
root 16.5685 13.6315 5.43993 197.111 -36.102 -192.091
lowerback 5.02786 -4.49534 -5.63287
upperback -7.74274 -7.24729 -1.74235
thorax -10.6794 -3.3129 2.28477
lowerneck -12.0532 -6.87369 -6.33641
upperneck 4.67204 -9.3602 11.1222
head 4.19815 -4.2919 3.72496
rclavicle -1.09841e-013 -9.54166e-015
rhumerus -30.5945 -5.92864 -33.1267
rradius 90.9731
rwrist -40.5032
rhand -32.6567 8.55927
rfingers 7.12502
rthumb -5.88279 -21.3391
lclavicle -1.09841e-013 -9.54166e-015
lhumerus -4.51424 -27.5791 18.1562
lradius 101.802
lwrist 27.8261
lhand -41.6494 36.2454
lfingers 7.12502
lthumb -14.5573 785.715
rfemur -50.8544 -7.1295 51.4328
rtibia 48.9377
rfoot 7.84974 2.93061
rtoes 14.0098
lfemur -6.73817 12.425 -46.5601
ltibia 40.4222
lfoot -23.8396 -13.921
ltoes 29.2751
2071
root 16.2921 13.5939 5.47464 197.374 -36.8153 -191.845
lowerback 4.48625 -5.03116 -5.49457
upperback -8.02276 -7.88449 -1.155
thorax -10.5538 -3.61345 2.86427
lowerneck -11.8435 -7.25172 -6.34497
upperneck 4.62245 -9.90564 11.3048
head 4.2077 -4.56405 3.73751
rclavicle 5.50385e-014 2.54444e-014
rhumerus -27.3342 -6.98665 -31.7448
rradius 86.0702
rwrist -46.2862
rhand -29.6397 3.53166
rfingers 7.12502
rthumb -2.96949 -26.4274
lclavicle 5.50385e-014 2.54444e-014
lhumerus -4.24542 -30.0477 17.2687
lradius 103.631
lwrist 24.7682
lhand -43.1047 33.3927
lfingers 7.12502
lthumb -15.9592 782.755
rfemur -51.2643 -6.43301 50.3819
rtibia 49.5902
rfoot 7.17712 3.21928
rtoes 16.783
lfemur -5.84362 12.6792 -46.9308
ltibia 39.5092
lfoot -22.7702 -14.5327
ltoes 29.87
